<?xml version="1.0" encoding="UTF-8"?>
<svg xmlns="http://www.w3.org/2000/svg" xmlns:xlink="http://www.w3.org/1999/xlink" width="360px" height="480px" viewBox="0 0 360 480" version="1.1">
<g id="surface1">
<path style=" stroke:none;fill-rule:nonzero;fill:rgb(0%,0%,0%);fill-opacity:1;" d="M 314.851562 240 C 314.851562 213.464844 309.074219 189.332031 299.699219 171.332031 C 302.34375 148.996094 299.179688 125.730469 291.089844 108.003906 C 282.996094 90.28125 270.839844 79.992188 258 80 L 102 80 C 89.128906 79.976562 76.9375 90.300781 68.839844 108.089844 C 60.742188 125.878906 57.601562 149.222656 60.300781 171.601562 C 40.101562 210.234375 40.101562 270.03125 60.300781 308.667969 C 57.65625 331.003906 60.820312 354.269531 68.910156 371.996094 C 77.003906 389.71875 89.160156 400.007812 102 400 L 258 400 C 270.824219 400 282.964844 389.726562 291.054688 372.035156 C 299.144531 354.34375 302.320312 331.117188 299.699219 308.800781 C 309.453125 290.144531 314.867188 265.605469 314.851562 240.132812 Z M 314.851562 240 "/>
</g>
</svg>
